<svg xmlns="http://www.w3.org/2000/svg" viewBox="0 0 1000 562">
  
  <g fill="#0a0408">
    
    <path d="M500,420&#xA;             L820,452 L860,464 L800,468&#xA;             L640,464 L560,456 L500,452 Z"></path>
    <path d="M500,420&#xA;             L180,452 L140,464 L200,468&#xA;             L360,464 L440,456 L500,452 Z"></path>
    
    <path d="M500,442 L600,468 L612,476 L580,476 L520,460 Z"></path>
    <path d="M500,442 L400,468 L388,476 L420,476 L480,460 Z"></path>
    
    <path d="M468,372 C468,356 482,346 500,346 C518,346 532,356 532,372 L540,442 C540,454 524,462 500,462 C476,462 460,454 460,442 Z"></path>
    
    <path d="M482,358 L476,330 L488,332 L492,360 Z"></path>
    <path d="M518,358 L524,330 L512,332 L508,360 Z"></path>
    
    <rect x="468" y="438" width="22" height="22" rx="4"></rect>
    <rect x="510" y="438" width="22" height="22" rx="4"></rect>
    
    <path d="M488,354 C488,348 494,344 500,344 C506,344 512,348 512,354 L510,372 L490,372 Z" fill="#1a0a14"></path>
  </g>
</svg>