<svg xmlns="http://www.w3.org/2000/svg" width="56" height="56" viewBox="0 0 56 56" fill="none">
  <defs>
    <linearGradient id="skyGrad" x1="0" y1="0" x2="0" y2="1">
      <stop offset="0%" stop-color="#2a1a3a"></stop>
      <stop offset="40%" stop-color="#7a3a4a"></stop>
      <stop offset="70%" stop-color="#d2603a"></stop>
      <stop offset="100%" stop-color="#f59045"></stop>
    </linearGradient>
    <clipPath id="appClip">
      <rect width="56" height="56" rx="14" ry="14"></rect>
    </clipPath>
  </defs>
  <g clip-path="url(#appClip)">
    <rect width="56" height="56" fill="url(#skyGrad)"></rect>

    
    <circle cx="28" cy="32" r="5.5" fill="#fff5d0"></circle>

    
    <path d="M0 40 L9 35 L17 39 L26 32 L34 37 L43 33 L56 39 L56 56 L0 56 Z" fill="#6a2e3e"></path>
    <path d="M0 44 L8 40 L18 43 L28 38 L38 42 L48 39 L56 43 L56 56 L0 56 Z" fill="#3a1e2a"></path>

    
    <g fill="#0a0612">
      
      <path d="M11 47 L26 43 L26 47 L21 50 Z"></path>
      <path d="M45 47 L30 43 L30 47 L35 50 Z"></path>
      
      <path d="M24 38 L26 36 L30 36 L32 38 L33 47 L31 49 L25 49 L23 47 Z"></path>
      
      <path d="M27 32 L29 32 L29 39 L27 39 Z"></path>
    </g>

    
    <path d="M0 50 L12 47 L22 49 L32 46 L44 48 L56 50 L56 56 L0 56 Z" fill="#1a0e1c"></path>
  </g>
</svg>